# Blender 3.3.1
# www.blender.org
mtllib army2.mtl
o Body2
v 0.741175 0.225939 3.712514
v 1.813834 0.486512 -2.939023
v -1.813835 0.487193 -2.939734
v -0.741174 0.228927 3.718310
v -1.513960 -1.025748 -1.057541
v -2.859215 0.115440 -2.155903
v -5.911235 0.348731 -2.218413
v 1.507152 -1.022749 -1.046348
v 0.183746 -0.412044 4.311857
v -0.183316 -0.412044 4.311857
v 5.911235 0.348731 -2.218414
v 2.859215 0.115440 -2.155904
v 4.838574 0.413237 0.283357
v 4.376888 0.161829 -0.027346
v -4.376888 0.161829 -0.027346
v -4.838574 0.413237 0.283358
vn 0.0016 0.9993 0.0386
vn 0.0005 0.9992 0.0391
vn 0.0022 0.9993 0.0384
vn -0.1337 -0.8145 -0.5646
vn -0.1021 -0.8392 -0.5341
vn -0.0566 -0.8708 -0.4884
vn 0.0011 -0.7804 -0.6253
vn 0.0017 -0.7809 -0.6246
vn 0.0031 -0.7821 -0.6232
vn 0.0005 -0.9935 0.1134
vn 0.0002 -0.9936 0.1133
vn 0.0006 -0.9935 0.1134
vn 0.0032 0.6822 0.7311
vn 0.0027 0.6826 0.7308
vn -0.0000 0.6847 0.7288
vn 0.1318 -0.8161 -0.5626
vn 0.1009 -0.8402 -0.5328
vn 0.1694 -0.7837 -0.5975
vn 0.1347 -0.9908 0.0098
vn 0.2440 -0.9657 0.0885
vn 0.0755 -0.9966 -0.0321
vn 0.3838 -0.9234 -0.0075
vn 0.3817 -0.9243 -0.0006
vn 0.3183 -0.9299 0.1846
vn 0.0059 0.9998 0.0172
vn 0.0069 0.9998 0.0162
vn 0.0355 0.9993 -0.0106
vn 0.7168 -0.0135 0.6971
vn 0.3285 -0.8833 0.3345
vn 0.2926 -0.9080 0.3000
vn -0.2440 -0.9657 0.0885
vn -0.1347 -0.9908 0.0098
vn -0.0755 -0.9966 -0.0321
vn -0.3857 -0.9226 -0.0084
vn -0.3832 -0.9237 -0.0001
vn -0.4569 -0.8346 -0.3076
vn -0.0063 0.9998 0.0171
vn -0.0073 0.9998 0.0161
vn 0.0144 0.9992 0.0364
vn -0.7172 -0.0211 0.6965
vn -0.3285 -0.8833 0.3346
vn -0.7176 0.0201 0.6962
vn 0.0002 0.9992 0.0392
vn -0.1724 -0.7810 -0.6003
vn -0.0000 -0.7794 -0.6265
vn -0.0000 -0.9936 0.1132
vn 0.0042 0.6814 0.7319
vn 0.0566 -0.8709 -0.4882
vn 0.3723 -0.9099 0.1831
vn 0.4540 -0.8370 -0.3054
vn -0.0149 0.9992 0.0367
vn 0.7170 0.0279 0.6965
vn -0.3723 -0.9099 0.1831
vn -0.3189 -0.9295 0.1853
vn -0.0356 0.9993 -0.0105
vn -0.2924 -0.9080 0.3001
vt 0.625000 0.500000
vt 0.625613 0.135285
vt 0.884301 0.495567
vt 0.625000 0.000000
vt 0.875000 0.701109
vt 0.625000 0.709109
vt 0.375000 0.000000
vt 0.125000 0.720546
vt 0.375000 1.000000
vt 0.125000 0.877160
vt 0.375000 0.000000
vt 0.625000 0.000000
vt 0.609422 0.998450
vt 0.875000 0.879653
vt 0.375000 0.143036
vt 0.125000 0.473647
vt 0.375000 0.479847
vt 0.381179 0.717793
vt 0.890502 0.328128
vt 0.631152 0.220471
vt 0.373406 0.224162
vt 0.127385 0.318974
vt 0.630166 0.319565
vt 0.372566 0.320177
vt 0.375000 0.878224
vt 0.609422 0.885285
s 1
usemtl Army2_Mat
f 1/1/1 3/5/2 4/6/3
f 3/4/4 6/11/5 7/12/6
f 5/7/7 2/2/8 8/15/9
f 8/16/10 10/18/11 5/8/12
f 1/1/13 10/18/14 9/17/15
f 2/2/16 12/21/17 8/15/18
f 11/20/19 14/24/20 12/21/21
f 8/16/22 14/24/23 9/17/24
f 2/3/25 13/23/26 11/19/27
f 1/1/28 14/24/29 13/23/30
f 15/25/31 7/13/32 6/9/33
f 5/8/34 15/25/35 6/10/36
f 3/5/37 16/26/38 4/6/39
f 4/6/40 15/25/41 10/18/42
f 1/1/1 2/3/43 3/5/2
f 3/4/4 5/7/44 6/11/5
f 5/7/7 3/4/45 2/2/8
f 8/16/10 9/17/46 10/18/11
f 1/1/13 4/6/47 10/18/14
f 2/2/16 11/20/48 12/21/17
f 11/20/19 13/23/49 14/24/20
f 8/16/22 12/22/50 14/24/23
f 2/3/25 1/1/51 13/23/26
f 1/1/28 9/17/52 14/24/29
f 15/25/31 16/26/53 7/13/32
f 5/8/34 10/18/54 15/25/35
f 3/5/37 7/14/55 16/26/38
f 4/6/40 16/26/56 15/25/41
