# Blender v2.92.0 OBJ File: ''
# www.blender.org
mtllib highlightedindicator.mtl
o Plane
v -0.671875 0.000000 0.671875
v 0.671875 0.000000 0.671875
v -0.671875 0.000000 -0.671875
v 0.671875 0.000000 -0.671875
v -0.916667 0.000000 0.000000
v 0.000000 0.000000 0.916667
v 0.916667 0.000000 0.000000
v 0.000000 0.000000 -0.916667
v 0.000000 0.000000 -0.000000
vt 0.292969 0.000000
vt 0.705566 0.000000
vt 0.500000 0.500000
vt 0.000000 0.293213
vt 1.000000 0.294678
vt 1.000000 0.699219
vt 0.699219 1.000000
vt 0.304688 1.000000
vt 0.000000 0.697746
vn 0.0000 1.0000 0.0000
usemtl highlightedindicatormtl
s off
f 1/1/1 6/2/1 9/3/1 5/4/1
f 6/2/1 2/5/1 7/6/1 9/3/1
f 9/3/1 7/6/1 4/7/1 8/8/1
f 5/4/1 9/3/1 8/8/1 3/9/1
