# Blender v2.92.0 OBJ File: ''
# www.blender.org
mtllib projectile.mtl
o Cone_Cone.001
v -0.011263 0.150002 -0.147046
v 0.000000 0.000000 0.526006
v 0.185848 0.001310 -0.147465
v -0.041594 -0.072882 -0.143902
vt 0.191253 0.444988
vt 0.250000 0.250000
vt 0.460459 0.249006
vt 0.151017 0.099051
vt 0.691253 0.444988
vt 0.960459 0.249006
vt 0.651017 0.099051
vn 0.5941 0.7872 0.1655
vn 0.3102 -0.9470 0.0838
vn -0.9897 0.1353 0.0467
vn -0.0116 -0.0125 -0.9999
usemtl projmtl
s 1
f 1/1/1 2/2/1 3/3/1
f 3/3/2 2/2/2 4/4/2
f 4/4/3 2/2/3 1/1/3
f 1/5/4 3/6/4 4/7/4
